<svg width="1920" height="640" viewBox="0 0 1920 640" fill="none" xmlns="http://www.w3.org/2000/svg">
<path d="M1389.51 70.96C1392.95 69.84 1396.32 68.52 1399.84 67.64C1425.41 66.36 1452.49 71.0133 1473.47 86.56C1482.31 92.16 1489.27 100.173 1495.88 108.173C1506.44 123.92 1513.25 142.253 1515.23 161.12C1516.91 166.373 1516.04 171.907 1516.23 177.32C1516 182.72 1517.04 188.32 1515.04 193.507C1514.48 209.333 1509.56 224.587 1504.53 239.467C1502.83 247.107 1499.08 254.013 1496 261.133C1489.04 275.893 1481.45 290.48 1471.64 303.547C1468.97 308.747 1465.33 313.333 1461.73 317.907C1454.64 325.88 1449.52 335.6 1441.25 342.507C1439.68 344.12 1438.89 346.36 1437.23 347.893C1432.32 351.84 1428.64 357.013 1424.19 361.413C1418.75 366.573 1413.72 372.187 1407.81 376.84C1400.23 383.347 1395.11 392.093 1389.13 400C1381.96 412.56 1373.29 424.387 1368.49 438.16C1360.65 454.88 1357.09 473.787 1358.87 492.053C1358.77 502.573 1363.19 512.267 1366.25 522.107C1369.84 528.947 1372.79 536.147 1377.47 542.373C1378.88 544.84 1380.28 547.387 1382.35 549.387C1386.08 552.973 1388.29 557.747 1391.25 561.947C1391.83 564.053 1392.08 567.267 1389.29 567.827C1384.89 568.653 1379.95 568.88 1375.71 567.173C1367.4 554.027 1358.29 541.28 1351.73 527.133C1342.87 511.173 1337.07 493.747 1333.09 475.973C1332.48 471.387 1331.83 466.8 1330.19 462.453C1329.85 453.2 1328.35 443.947 1329.44 434.667C1330.88 423.067 1332.69 411.44 1336.44 400.28C1338.75 393.84 1340.19 387.013 1343.73 381.093C1351.05 367.6 1358.32 353.813 1368.69 342.387C1372.07 337.72 1375.39 332.893 1380.19 329.547C1384.45 324.44 1388.69 319.04 1394.41 315.453C1400.07 311 1404.52 305.173 1410.51 301.08C1416.59 297.12 1421.81 291.973 1428.16 288.373C1432.65 285.827 1436.8 282.747 1440.19 278.813C1448.41 272.88 1454.75 264.813 1460.48 256.547C1465.73 250.293 1469.39 242.987 1472.37 235.44C1482.35 215.427 1487.19 193.053 1486.48 170.72C1488.07 160.787 1485.16 151.107 1483.53 141.413C1480.75 133.467 1478.67 124.973 1473.25 118.32C1470.56 112.24 1466.61 106.787 1461.36 102.68C1451.16 92.5333 1437.12 86.1467 1422.63 86.3333C1417.75 86.56 1412.79 85.8 1408.01 86.9467C1395.45 92 1382.96 98.6133 1374.15 109.147C1365.07 120.44 1364.04 136.053 1367.49 149.667C1371.25 169.627 1381.61 187.787 1384.01 208.04C1385.39 215.44 1383.97 223.013 1381.92 230.227C1376.01 241.133 1372.84 253.267 1366.73 264.107C1359.48 276.933 1352.37 290.107 1341.97 300.707C1339.41 303.24 1337.65 306.587 1334.36 308.293C1335.57 303.32 1337.8 298.627 1338.85 293.6C1340.4 280.76 1342.89 267.747 1340.77 254.813C1340.93 249.52 1336.43 245.973 1334.76 241.28C1328.19 229 1324.28 215.28 1323.23 201.44C1324.07 195.533 1321.15 189.747 1322.88 183.933C1323.77 179.693 1322.77 175.32 1323.47 171.067C1325.23 166.2 1324.8 160.907 1326.16 155.933C1328.71 147.413 1330.53 138.64 1334.73 130.693C1337.33 124.253 1340.49 118.067 1343.65 111.88C1345.47 109.24 1347.28 106.587 1349.21 104C1355.39 97.2133 1359.85 88.6667 1368.11 84C1371.64 81.36 1375.15 78.68 1378.81 76.2L1379.71 75.6267C1382.91 73.96 1386.16 72.36 1389.51 70.96Z" fill="white"/>
<path d="M1308.23 88.5333C1315.28 88.3467 1322.35 88.4533 1329.41 88.4133C1331.09 88.4933 1333.95 88.2667 1334.29 90.5467C1330.55 98.6533 1325.87 106.28 1322.6 114.613C1317.23 124.56 1313.51 135.36 1307.05 144.72C1301.51 142.627 1296.24 139.893 1291.07 137.04C1283.67 133.387 1274.93 131.187 1269.05 125.253C1276.57 123.653 1284.33 124.533 1291.99 124.373C1295.92 124.36 1301.11 126.427 1303.95 122.533C1300.8 116.747 1294.2 113.067 1292.15 106.787C1292.37 106.32 1292.85 105.387 1293.08 104.92C1301 104.067 1310.07 105.92 1316.99 101.347C1316.29 95.84 1308.21 94.2133 1308.23 88.5333Z" fill="white"/>
<path d="M1337.81 99.2C1339.13 97.1066 1339.11 94.2 1341.32 92.7066C1343.6 92.0666 1345.61 93.6266 1347.67 94.4133C1344.72 99.7733 1339.91 103.973 1338.03 109.893C1331.16 122.64 1323.89 135.347 1319.65 149.267C1317.73 149.067 1315.08 149.333 1315.04 146.653C1317.01 139.053 1321.68 132.507 1323.76 124.933C1327.93 116.08 1333.07 107.747 1337.81 99.2Z" fill="white"/>
<path d="M1720.08 105C1720.99 102.907 1722.01 100.867 1723.09 98.8401C1724.92 103.413 1724.15 108.547 1724.41 113.373C1723.55 116.867 1722.6 120.373 1722.84 124.013C1723.13 131.627 1722.39 139.213 1722.23 146.827C1721.56 152.12 1719.57 157.28 1720.35 162.693C1719.89 165.853 1719.48 169.013 1718.95 172.16C1716.48 184.813 1715.76 197.867 1711.2 210.053C1707.91 223.36 1702.55 236.013 1698.04 248.933C1692.19 260.627 1686.08 272.227 1679.35 283.427C1673.72 290.707 1668.48 298.28 1662.32 305.133C1649.59 318.6 1636.15 331.56 1620.71 341.933C1615.55 346.467 1609.03 348.933 1603.57 353.04C1593.09 360.813 1580.76 365.467 1569.64 372.213C1543.72 385.467 1517.01 397.213 1491.59 411.44C1466.95 424.333 1443.97 440.64 1424.19 460.213C1418.79 466.773 1413.07 473.067 1407.59 479.587C1401.32 488.507 1395.92 498.107 1389.76 507.067C1389.09 501.12 1390.04 495.187 1390.51 489.267C1392.52 482.173 1391.87 474.613 1394.11 467.547C1396.73 452.587 1401.68 438.16 1406.76 423.893C1410.49 413.44 1417.53 404.707 1422.71 395.013C1426.12 390.76 1430.09 386.96 1433.43 382.627C1438.4 377.44 1442.52 371.28 1448.95 367.693C1471.2 348.293 1498.21 335.8 1523.39 320.8C1547.97 307.453 1572.08 292.947 1593.97 275.467C1603.39 268.933 1611.4 260.667 1620.05 253.187C1623.75 249.387 1627.88 246.027 1631.64 242.28C1637.15 234.907 1644.21 228.933 1649.79 221.573C1653.49 216.507 1657.92 212.013 1661.53 206.867C1668.8 196.68 1676.09 186.52 1682.88 176.013C1684.99 172.44 1687.03 168.827 1689.16 165.267C1691.33 161.253 1694.04 157.573 1696.09 153.493C1697.64 150.4 1699.24 147.293 1701.69 144.787C1701.51 144.72 1701.13 144.573 1700.95 144.507L1700.55 144.347C1702.55 141.267 1704.05 137.907 1705.97 134.773C1708.73 130.44 1710.48 125.52 1713.19 121.133C1713.8 119.987 1714.41 118.813 1714.99 117.64C1716.79 113.467 1718.19 109.133 1720.08 105Z" fill="white"/>
<path d="M567 152.32C576.493 152.347 585.987 152.307 595.48 152.347C595.44 193.56 595.48 234.773 595.453 275.987C594.987 284.107 600.867 291.667 608.52 293.987C617.507 296.027 626.813 294.173 635.933 294.907C646.92 295.933 656.2 285.36 655.76 274.76C655.867 233.947 655.627 193.12 655.88 152.307C665.533 152.373 675.2 152.293 684.88 152.347C684.827 193.107 684.88 233.867 684.853 274.627C684.267 284.56 692.48 294.667 702.68 294.813C711.573 294.68 720.467 295.067 729.36 294.893C724.08 286.893 718.08 279.413 712.48 271.64C718.987 266.44 725.547 261.307 732.08 256.107C736.867 252.24 739.96 246.187 739.787 239.973C739.853 210.76 739.693 181.533 739.867 152.32C749.227 152.333 758.587 152.373 767.947 152.28C768.067 177.067 767.827 201.867 768.067 226.64C789.213 208.733 823.453 207.96 844.933 225.707C860.867 238.947 866.867 261.8 862.107 281.587C856.307 305.64 832.973 324.36 808.093 323.96C772.48 323.933 736.867 324.067 701.253 323.893C689.693 323.92 679.173 318.147 670.64 310.773C667.72 311.773 665.76 314.84 662.973 316.347C654.373 322.32 643.707 324.413 633.373 323.987C621.413 323.573 608.893 325.467 597.52 320.773C583.347 315.4 572.24 302.88 568.52 288.213C567.067 282.92 566.947 277.413 566.987 271.973C567.013 232.093 567 192.213 567 152.32ZM786.987 248.32C768.16 263.8 749.173 279.12 730.507 294.8C756.747 295.053 782.987 294.907 809.24 294.88C827.133 294.773 840.76 273.84 833.24 257.467C825.8 240.133 800.8 236.853 786.987 248.32Z" fill="white"/>
<path d="M510.28 229.16C519.986 229.24 529.706 228.947 539.413 229.32C539.306 241.773 539.386 254.227 539.36 266.68C539.333 274.2 539.786 281.92 537.453 289.187C531.253 310.733 508.973 326.04 486.6 323.987C469.133 323.947 451.653 323.987 434.187 323.96C443.787 337.987 444.067 356.933 437.6 372.293C429.573 392.44 408.226 406 386.693 405.76C364.933 405.68 343.173 405.92 321.426 405.64C300.293 404.933 280.88 390.467 273.173 370.96C270.32 364.147 269.173 356.733 269.16 349.373C269.146 325.6 269.16 301.813 269.146 278.04C278.813 277.987 288.466 278.12 298.133 277.973C298.4 302.6 298.066 327.253 298.293 351.88C298.373 365.387 310.36 377.613 324 377.227C344.013 377.28 364.04 377.24 384.066 377.253C393.28 377.173 402.933 373.4 408.373 365.68C413.12 359.227 413.933 350.533 411.773 342.973C408.613 332.173 398.053 323.653 386.64 323.947C371.147 323.987 355.64 323.96 340.146 323.973C340.2 314.28 340.16 304.6 340.173 294.907C390.333 294.987 440.493 294.827 490.653 294.92C500.92 295.453 510.026 286.067 510.24 276C510.346 260.387 510.24 244.773 510.28 229.16Z" fill="white"/>
<path d="M1672.04 350.467C1674.77 348.307 1677.2 345.8 1679.89 343.587C1680.85 343.187 1682.8 342.413 1683.77 342.013C1683.4 344.32 1683.12 346.64 1682.92 348.96C1680.23 363.387 1675.55 377.387 1669.47 390.733C1665.45 401.573 1660 411.853 1652.99 421.027C1649.8 427.627 1644.04 432.28 1639.05 437.48C1630.79 447.347 1619.36 453.947 1608.35 460.36C1573.04 478.48 1533.17 483.587 1495.35 493.933C1490.96 495.92 1486.01 495.8 1481.55 497.493C1472.61 500.573 1463.65 503.507 1454.77 506.68C1447.19 510.667 1438.76 512.573 1431.32 516.827C1421.52 520.627 1413.28 527.28 1403.72 531.547C1405.73 522.573 1410.57 514.76 1414.84 506.747C1420.69 496.213 1427.61 486.147 1436.57 478.013C1441.28 471.92 1448.17 468.2 1454.31 463.733C1477.55 448.88 1504.81 442.947 1530.25 432.947C1538.57 431.147 1546.24 427.453 1554.24 424.6C1560.32 422.013 1566.56 419.733 1572.35 416.467C1588.68 410.84 1602.96 400.867 1617.93 392.52C1636.71 379.467 1655.47 366.253 1672.04 350.467Z" fill="white"/>
<path d="M495.373 357.893C504.4 357.6 513.426 357.88 522.453 357.747C522.493 366.96 522.466 376.173 522.466 385.387C513.466 385.4 504.453 385.4 495.453 385.387C495.4 376.227 495.546 367.067 495.373 357.893Z" fill="white"/>
<path d="M450.334 357.787C459.361 357.76 468.374 357.76 477.401 357.787C477.387 366.987 477.401 376.173 477.387 385.373C468.374 385.413 459.361 385.387 450.347 385.387C450.334 376.187 450.347 366.987 450.334 357.787Z" fill="white"/>
<path d="M1609.64 496.147C1615.76 492.987 1621.2 488.72 1627.15 485.267C1625.04 492.667 1619.76 498.867 1616.19 505.667C1613.39 511.453 1608.19 515.4 1604.59 520.6C1600.69 524.627 1597.16 529.147 1592.29 532.053C1587.05 535.333 1582.48 539.667 1576.81 542.253C1567.17 546.653 1557.19 550.373 1546.61 551.653C1540.92 553.667 1534.85 552.293 1529.09 553.8C1522.59 553.947 1516.03 554.16 1509.55 553.693C1501.71 551.667 1493.37 554.453 1485.65 551.827C1479.79 551.4 1473.88 552.093 1468.07 551.013C1457.83 550.76 1447.59 551.013 1437.35 550.893C1429.63 550.787 1422.23 553.733 1414.55 553.56C1420.79 546.52 1428.28 540.72 1436.79 536.613C1447.64 529.413 1460.95 527.987 1473.27 524.76C1485.32 524.48 1497.23 522.867 1509.31 523.4C1512.61 523.76 1515.76 522.72 1518.91 521.8C1535.49 522.013 1551.92 518.987 1567.77 514.267C1582.75 510.947 1596.15 503.16 1609.64 496.147Z" fill="white"/>
<path opacity="0.24" d="M1379.71 75.6266C1382.55 73.3066 1386.04 72.0533 1389.51 70.96C1386.16 72.36 1382.91 73.96 1379.71 75.6266Z" fill="white"/>
<path opacity="0.24" d="M1368.11 83.9999C1370.93 80.5066 1374.96 78.3733 1378.81 76.2C1375.15 78.68 1371.64 81.3599 1368.11 83.9999Z" fill="white"/>
<path opacity="0.24" d="M1722.88 98.2933C1723.44 98.0533 1724.57 97.5733 1725.13 97.3333C1725.27 103.373 1725.69 109.507 1724.53 115.48C1723.21 121.693 1724.76 128.107 1723.63 134.347C1722.89 137.96 1723.15 141.653 1723.07 145.32C1721.15 153.36 1720.99 161.707 1720.33 169.933C1719.99 170.493 1719.29 171.6 1718.95 172.16C1719.48 169.013 1719.89 165.853 1720.35 162.693C1719.57 157.28 1721.56 152.12 1722.23 146.827C1722.39 139.213 1723.13 131.627 1722.84 124.013C1722.6 120.373 1723.55 116.867 1724.41 113.373C1724.15 108.547 1724.92 103.413 1723.09 98.8399L1722.88 98.2933Z" fill="white"/>
<path opacity="0.24" d="M1714.99 117.64C1715.96 113.16 1717.95 109.027 1720.08 105C1718.19 109.133 1716.79 113.467 1714.99 117.64Z" fill="white"/>
<path opacity="0.24" d="M1334.73 130.693C1336.8 124.04 1340.03 117.813 1343.65 111.88C1340.49 118.067 1337.33 124.253 1334.73 130.693Z" fill="white"/>
<path opacity="0.24" d="M1682.88 176.013C1684.39 172.107 1686.43 168.453 1689.16 165.267C1687.03 168.827 1684.99 172.44 1682.88 176.013Z" fill="white"/>
<path opacity="0.24" d="M1649.79 221.573C1652.81 216.04 1657.47 211.64 1661.53 206.867C1657.92 212.013 1653.49 216.507 1649.79 221.573Z" fill="white"/>
<path opacity="0.24" d="M1620.05 253.187C1623.6 249.24 1627.2 245.267 1631.64 242.28C1627.88 246.027 1623.75 249.387 1620.05 253.187Z" fill="white"/>
<path opacity="0.24" d="M1679.89 343.587C1681.35 341.787 1682.63 339.267 1685.4 339.707C1684.04 342.493 1685.44 346.96 1682.92 348.96C1683.12 346.64 1683.4 344.32 1683.77 342.013C1682.8 342.413 1680.85 343.187 1679.89 343.587Z" fill="white"/>
<path opacity="0.24" d="M1424.19 361.413C1428.64 357.013 1432.32 351.84 1437.23 347.893C1432.73 352.28 1429.11 357.48 1424.19 361.413Z" fill="white"/>
<path opacity="0.24" d="M1377.46 542.373C1379.53 544.36 1380.93 546.907 1382.34 549.387C1380.28 547.387 1378.88 544.84 1377.46 542.373Z" fill="white"/>
<path opacity="0.24" d="M1622.97 574.84C1626.79 572.613 1623.32 579.293 1622.97 574.84Z" fill="white"/>
<path d="M1705.97 134.773C1707.95 130.04 1710.35 125.413 1713.19 121.133C1710.48 125.52 1708.73 130.44 1705.97 134.773Z" fill="black"/>
<path d="M1068.96 136.253C1077.92 136.36 1086.88 136.307 1095.84 136.293C1095.92 145.507 1095.85 154.72 1095.88 163.947C1086.87 163.987 1077.85 163.933 1068.85 163.973C1068.84 154.733 1068.64 145.493 1068.96 136.253Z" fill="black"/>
<path d="M1113.88 136.36C1122.91 136.253 1131.95 136.307 1140.99 136.333C1140.99 145.52 1140.95 154.72 1141.01 163.907C1131.95 163.947 1122.88 164.12 1113.81 163.813C1114 154.653 1113.91 145.507 1113.88 136.36Z" fill="black"/>
<path d="M1696.09 153.493C1697.87 150.72 1698.51 146.48 1700.95 144.507C1701.13 144.573 1701.51 144.72 1701.69 144.787C1699.24 147.293 1697.64 150.4 1696.09 153.493Z" fill="black"/>
<path d="M1058.71 225.32C1062.89 203.88 1083.16 186.427 1105.27 186.973C1129.08 186.8 1150.75 206.987 1152.41 230.707C1152.89 244.027 1152.51 257.36 1152.63 270.68C1152.87 283.013 1148.73 295.36 1140.96 304.947C1131.45 316.76 1116.51 323.947 1101.33 323.96C1077.83 324.08 1054.32 323.907 1030.81 324.053C1030.01 343.8 1020.77 363.36 1004.63 375.107C989.388 385.973 970.735 389.773 953.175 395.24C950.602 386.853 947.668 378.573 945.468 370.093C955.175 366.72 964.868 363.347 974.468 359.693C982.788 356.507 990.775 351.413 995.855 343.933C999.322 337.853 1001.55 330.987 1002.08 324C989.268 323.493 976.095 325.493 963.628 321.76C950.562 317.827 939.375 308.387 933.082 296.307C925.802 282.907 925.055 266.227 930.935 252.173C935.682 240.627 944.402 230.667 955.562 224.96C970.642 216.96 989.815 217.48 1004.56 226.027C1016.11 232.613 1024.67 243.92 1028.61 256.547C1032.4 269.013 1030.16 282.2 1031.01 295C1050.48 294.52 1069.96 295.093 1089.43 294.893C1096.69 294.667 1104.47 295.907 1111.21 292.507C1115.83 290.347 1119.35 286.493 1121.99 282.213C1115.6 281.253 1109.12 282.16 1102.71 281.72C1087.96 281.307 1073.71 273.32 1065.64 260.987C1058.67 250.653 1056.29 237.507 1058.71 225.32ZM1090.64 222.613C1082.35 231.773 1086.52 248.373 1098.4 252.173C1106.59 254.293 1115.23 252.987 1123.6 253.173C1122.81 244.227 1125.11 234.747 1121.69 226.213C1116.49 214.387 1098.49 212.613 1090.64 222.613ZM955.522 273.24C955.815 284.64 966.068 294.573 977.402 294.813C985.695 295.027 993.988 294.813 1002.28 294.893C1002.32 286.8 1002.43 278.693 1002.25 270.6C1001.89 258.573 990.762 248.04 978.722 248.373C965.922 248.307 954.522 260.44 955.522 273.24Z" fill="black"/>
<path d="M1116.13 458.253C1123.09 451.213 1130.16 444.253 1137.29 437.373C1138.72 438.947 1140.15 440.547 1141.55 442.173C1134.33 448.933 1127.77 456.4 1120.33 462.907C1118.93 461.347 1117.53 459.8 1116.13 458.253Z" fill="black"/>
<path d="M1121.92 467.333C1130.17 459.347 1138.11 451.04 1146.29 443.013C1148.01 444.747 1149.73 446.493 1151.47 448.253C1144.4 456.027 1136.77 463.306 1130.03 471.36C1136.56 475.426 1143.21 479.347 1149.35 484C1158.36 490.907 1159.03 505.8 1150.93 513.667C1147.81 517.04 1143.27 518.773 1138.72 518.64C1127.59 518.68 1116.47 518.707 1105.36 518.627C1096.11 518.64 1087.68 510.507 1087.4 501.267C1087.13 483.733 1087.57 466.2 1087.19 448.667C1089.65 448.4 1092.13 448.293 1094.64 448.293C1094.91 465.56 1094.64 482.813 1094.77 500.08C1094.41 505.88 1099.63 511.093 1105.4 510.933C1116.93 510.733 1128.49 511.373 1140.01 510.787C1149.4 509.547 1152.51 496.413 1145.32 490.627C1137.84 484.987 1129.77 480.147 1121.93 475.013C1121.83 472.44 1121.83 469.88 1121.92 467.333Z" fill="black"/>
<path d="M373.654 448.413C376.188 448.373 378.708 448.333 381.254 448.307C381.441 471.773 381.281 495.24 381.334 518.707C378.734 518.667 376.161 518.613 373.574 518.533C373.774 495.16 373.614 471.787 373.654 448.413Z" fill="black"/>
<path d="M522.214 448.28C524.641 448.32 527.081 448.347 529.534 448.373C529.841 471.787 529.588 495.227 529.654 518.653C527.108 518.653 524.574 518.667 522.041 518.68C522.081 495.213 521.734 471.733 522.214 448.28Z" fill="black"/>
<path d="M775.88 448.32C778.227 448.333 780.573 448.347 782.947 448.347C783.293 465.573 782.933 482.8 783.12 500.026C782.733 505.693 787.707 510.893 793.347 510.906C796.907 511.013 800.467 510.88 804.027 510.866C809.787 511.16 814.653 505.693 814.587 500.12C814.8 482.853 814.48 465.586 814.733 448.32C817.253 448.346 819.773 448.36 822.307 448.387C822.373 465.587 822.227 482.787 822.373 499.973C822.253 505.72 827.36 511.173 833.213 510.826C848.773 511.093 864.347 511.066 879.907 510.906C889.307 510.773 896.2 499.88 892.493 491.267C888.827 482.2 875.96 479.853 868.573 485.72C860.667 491.973 852.933 498.466 845.093 504.813C843.507 502.813 841.96 500.787 840.44 498.747C844.747 495.027 851.107 491.893 851.453 485.453C851.813 473.093 851.307 460.707 851.693 448.347C854.027 448.347 856.373 448.346 858.72 448.36C859.04 460.04 858.733 471.72 858.893 483.4C864.587 478.893 871.027 474.546 878.68 474.986C889.36 474.36 899.693 482.68 900.613 493.493C902.867 505.76 892.44 518.333 880.027 518.6C864.467 518.747 848.893 518.653 833.333 518.653C827.56 518.92 822.467 515.693 818.547 511.76C815.16 514.72 811.48 517.826 806.84 518.4C802.347 518.866 797.813 518.72 793.32 518.613C783.72 518.44 775.307 509.533 775.68 499.933C775.773 482.733 775.4 465.52 775.88 448.32Z" fill="black"/>
<path d="M1064.36 448.387C1066.87 448.36 1069.39 448.346 1071.92 448.32C1072.12 465.573 1072 482.827 1072 500.08C1072.16 506.933 1067.95 513.493 1061.92 516.613C1056.44 519.626 1049.93 518.507 1043.96 518.64C1040.07 518.747 1036.44 517.226 1033.15 515.32C1033.41 523.48 1032.4 532.347 1026.77 538.707C1021.29 544.867 1013.25 547.88 1005.49 549.986C1004.95 547.96 1004.41 545.946 1003.88 543.946C1012.53 540.36 1023.27 536 1025.04 525.547C1026.03 510.613 1025.03 495.6 1025.56 480.653C1028.04 480.666 1030.53 480.68 1033.04 480.68C1033.27 487.56 1032.89 494.453 1033.21 501.333C1033.33 506.227 1037.85 510.16 1042.55 510.64C1046.57 510.973 1050.64 511.173 1054.69 510.866C1060.03 510.373 1064.36 505.32 1064.29 499.986C1064.44 482.786 1064.29 465.587 1064.36 448.387Z" fill="black"/>
<path d="M318.814 473.84C321.281 473.88 323.761 473.92 326.241 473.96C326.227 476.6 326.201 479.226 326.161 481.866C323.734 481.88 321.294 481.907 318.867 481.96C318.521 479.253 318.494 476.533 318.814 473.84Z" fill="black"/>
<path d="M437.722 473.853C441.002 475.507 443.922 478.427 447.882 478.4C461.228 478.627 474.588 478.107 487.935 478.187C498.215 478.053 507.455 487.027 507.775 497.267C508.588 508.187 499.015 518.667 488.015 518.627C467.108 518.707 446.202 518.68 425.295 518.64C421.402 518.747 417.788 517.227 414.481 515.32C414.681 522.947 413.935 531.147 409.135 537.413C403.748 544.4 395.082 547.893 386.748 549.893C386.255 547.893 385.735 545.92 385.215 543.947C393.908 540.347 404.682 535.947 406.388 525.44C407.362 510.533 406.308 495.547 406.935 480.627C409.402 480.653 411.881 480.667 414.361 480.68C414.615 487.56 414.228 494.453 414.548 501.32C414.668 506.213 419.188 510.147 423.868 510.64C429.948 511.173 436.068 510.96 442.162 510.987C436.508 503.307 436.615 492.467 442.828 485.133C439.028 483.587 435.642 481.173 433.388 477.707C434.802 476.4 436.175 475.027 437.722 473.853ZM474.468 485.787C479.762 493.267 480.028 503.587 474.401 510.973C481.735 510.347 490.735 513.173 496.575 507.307C502.775 501.347 500.442 489.507 492.308 486.507C486.562 484.68 480.388 486.04 474.468 485.787ZM453.615 486.88C445.535 489.68 442.855 501.08 449.082 507.04C455.335 514.307 468.762 510.787 470.602 501.347C473.415 491.92 462.388 482.867 453.615 486.88Z" fill="black"/>
<path d="M602.682 487.307C606.295 479.68 613.988 473.813 622.602 473.613C638.762 472.653 650.562 488.933 666.975 486.48C666.962 488.92 666.962 491.36 666.975 493.8C663.228 494.493 659.255 493.36 655.655 494.12C651.255 499.653 647.642 505.773 643.122 511.213C638.802 516.36 631.948 518.72 625.362 518.653C612.095 518.72 598.828 518.587 585.562 518.707C585.762 528.067 581.655 537.813 573.402 542.72C567.948 545.72 561.935 547.64 555.922 549.146C554.268 547.573 554.522 544.867 553.948 542.8C560.228 540.787 566.988 539.12 572.015 534.587C576.415 530.573 577.962 524.427 578.055 518.667C569.495 518.387 559.655 520.346 552.642 514.106C542.468 506.52 542.628 489.627 552.935 482.213C561.668 474.6 576.322 477.32 582.202 487.146C587.108 494.213 584.975 503.12 585.695 511.133C599.775 510.453 613.895 511.547 627.975 510.747C638.255 508.907 642.415 498.08 649.042 491.32C643.842 488.28 638.228 486.04 632.855 483.333C629.335 481.493 625.308 480.4 621.335 481.227C615.815 481.96 611.815 486.2 608.242 490.08C606.375 489.16 604.535 488.227 602.682 487.307ZM552.628 496.227C551.548 501.893 554.975 508.013 560.375 510.053C566.082 511.813 572.188 510.693 578.068 510.987C578.055 506.44 578.282 501.88 577.988 497.333C577.615 490.96 571.855 485.426 565.428 485.48C559.255 485.24 553.602 490.2 552.628 496.227Z" fill="black"/>
<path d="M303.215 473.933C305.762 473.933 308.322 473.96 310.882 473.973C310.868 476.587 310.868 479.2 310.868 481.827C308.321 481.84 305.775 481.84 303.228 481.867C303.215 479.213 303.215 476.573 303.215 473.933Z" fill="black"/>
<path d="M704.255 485.56C710.881 476.68 724.975 475.307 733.108 482.907C737.641 486.827 740.321 492.76 740.175 498.76C740.108 506.76 740.428 514.773 739.961 522.76C739.428 531.453 734.174 539.813 726.321 543.68C721.134 546.16 715.628 547.907 710.054 549.24C709.508 547.107 709.015 544.947 708.615 542.8C714.868 540.813 721.575 539.133 726.601 534.667C731.068 530.653 732.614 524.467 732.734 518.667C724.401 518.32 714.921 520.347 707.894 514.573C698.788 508.16 696.881 494.013 704.255 485.56ZM714.734 486.587C707.068 489.76 704.508 500.773 710.375 506.8C716.001 513.133 725.281 510.413 732.695 511.013C732.628 505.613 733.294 500.133 732.214 494.813C730.334 487.573 721.521 483.24 714.734 486.587Z" fill="black"/>
<path d="M967.521 483.52C975.561 475.827 987.388 479.88 997.268 479.093C997.388 481.507 997.415 483.933 997.388 486.36C991.588 486.373 985.801 486.227 980.015 486.373C974.255 486.4 968.135 491.187 968.335 497.28C968.228 499.44 968.268 501.627 968.295 503.8C976.815 505.96 986.041 506.227 993.948 510.307C1004.16 516.08 1005.39 531.693 996.508 539.213C989.215 546.227 978.468 543.44 969.401 543.987C961.521 543.48 953.135 545.347 945.655 542.2C938.028 538.907 932.415 531.04 932.428 522.64C932.295 514.267 932.481 505.893 932.361 497.507C934.908 497.48 937.455 497.453 940.028 497.44C940.175 505.867 939.921 514.32 940.135 522.76C940.135 529.813 946.335 536.147 953.415 536.213C963.135 536.453 972.881 536.24 982.615 536.32C986.268 536.507 990.175 535.44 992.481 532.413C997.188 527.093 994.641 517.147 987.508 515.48C978.828 513.227 970.161 510.893 961.428 508.893C960.641 500.173 960.401 489.867 967.521 483.52Z" fill="black"/>
<path d="M271.041 481.84C273.481 481.827 275.921 481.827 278.374 481.827C278.694 487.84 277.734 494 279.254 499.893C281.334 506.373 287.894 510.987 294.681 510.947C307.974 511.04 321.267 511.027 334.547 510.947C342.307 511.133 349.641 505.04 350.721 497.333C351.321 492.2 350.907 487.013 351.027 481.853C353.481 481.84 355.934 481.827 358.387 481.813C358.334 487.84 358.881 493.92 357.894 499.893C355.774 510.56 345.561 518.853 334.667 518.64C321.334 518.68 308.001 518.693 294.681 518.64C285.774 518.733 277.161 513.28 273.374 505.24C269.761 497.973 271.294 489.627 271.041 481.84Z" fill="black"/>
<path d="M625.56 533.52C628.107 533.493 630.654 533.48 633.214 533.467C633.227 536.093 633.254 538.747 633.267 541.387C630.694 541.387 628.12 541.387 625.547 541.387C625.547 538.76 625.547 536.133 625.56 533.52Z" fill="black"/>
</svg>
