<svg width="32" height="32" viewBox="0 0 32 32" fill="none" xmlns="http://www.w3.org/2000/svg">
<rect x="0.5" y="0.5" width="31" height="31" rx="2.5" fill="#F1F1F1"/>
<rect x="0.5" y="0.5" width="31" height="31" rx="2.5" stroke="#CE995A"/>
<path opacity="0.4" d="M27.6243 21.7195L24.004 13.436C23.3447 11.9196 22.3616 11.0595 21.2397 11.003C20.1293 10.9464 19.0536 11.7046 18.2324 13.153L16.0348 17.0119C15.5721 17.8267 14.9128 18.3133 14.1957 18.3698C13.467 18.4377 12.7383 18.0643 12.1485 17.3287L11.894 17.0119C11.0728 16.0047 10.0549 15.5181 9.01395 15.62C7.97298 15.7218 7.08236 16.4234 6.49247 17.5664L4.49148 21.4705C3.77437 22.885 3.84376 24.5259 4.68811 25.8612C5.53246 27.1965 7.0014 28 8.60913 28H23.3679C24.9178 28 26.3636 27.2418 27.2195 25.9744C28.0985 24.707 28.2373 23.1114 27.6243 21.7195Z" fill="#CE995A"/>
<path d="M10 12C11.0609 12 12.0783 11.5786 12.8284 10.8284C13.5786 10.0783 14 9.06087 14 8C14 6.93913 13.5786 5.92172 12.8284 5.17157C12.0783 4.42143 11.0609 4 10 4C8.93913 4 7.92172 4.42143 7.17157 5.17157C6.42143 5.92172 6 6.93913 6 8C6 9.06087 6.42143 10.0783 7.17157 10.8284C7.92172 11.5786 8.93913 12 10 12Z" fill="#CE995A"/>
</svg>
