<svg width="19" height="19" viewBox="0 0 19 19" fill="none" xmlns="http://www.w3.org/2000/svg">
<path d="M10.2917 15.834H4.75C4.54004 15.834 4.33867 15.7506 4.19021 15.6021C4.04174 15.4536 3.95833 15.2523 3.95833 15.0423V3.95898C3.95833 3.74902 4.04174 3.54766 4.19021 3.39919C4.33867 3.25073 4.54004 3.16732 4.75 3.16732H8.70833V5.54232C8.70833 6.17221 8.95856 6.7763 9.40395 7.2217C9.84935 7.6671 10.4534 7.91732 11.0833 7.91732H13.4583V9.50065C13.4583 9.71061 13.5417 9.91198 13.6902 10.0604C13.8387 10.2089 14.04 10.2923 14.25 10.2923C14.46 10.2923 14.6613 10.2089 14.8098 10.0604C14.9583 9.91198 15.0417 9.71061 15.0417 9.50065V7.12565C15.0417 7.12565 15.0417 7.12565 15.0417 7.07815C15.0334 7.00542 15.0175 6.93377 14.9942 6.8644V6.79315C14.9561 6.71175 14.9053 6.63693 14.8437 6.57148L10.0937 1.82148C10.0283 1.75991 9.95348 1.70913 9.87208 1.67107C9.84845 1.66771 9.82446 1.66771 9.80083 1.67107C9.72041 1.62495 9.63159 1.59534 9.53958 1.58398H4.75C4.12011 1.58398 3.51602 1.83421 3.07062 2.27961C2.62522 2.725 2.375 3.3291 2.375 3.95898V15.0423C2.375 15.6722 2.62522 16.2763 3.07062 16.7217C3.51602 17.1671 4.12011 17.4173 4.75 17.4173H10.2917C10.5016 17.4173 10.703 17.3339 10.8515 17.1854C10.9999 17.037 11.0833 16.8356 11.0833 16.6257C11.0833 16.4157 10.9999 16.2143 10.8515 16.0659C10.703 15.9174 10.5016 15.834 10.2917 15.834ZM10.2917 4.28357L12.3421 6.33398H11.0833C10.8734 6.33398 10.672 6.25058 10.5235 6.10211C10.3751 5.95364 10.2917 5.75228 10.2917 5.54232V4.28357ZM16.3954 13.6886L14.8121 12.1052C14.7368 12.0332 14.648 11.9767 14.5508 11.939C14.3581 11.8598 14.1419 11.8598 13.9492 11.939C13.852 11.9767 13.7632 12.0332 13.6879 12.1052L12.1046 13.6886C11.9555 13.8376 11.8718 14.0398 11.8718 14.2507C11.8718 14.4615 11.9555 14.6637 12.1046 14.8127C12.2537 14.9618 12.4558 15.0456 12.6667 15.0456C12.8775 15.0456 13.0797 14.9618 13.2287 14.8127L13.4583 14.5752V16.6257C13.4583 16.8356 13.5417 17.037 13.6902 17.1854C13.8387 17.3339 14.04 17.4173 14.25 17.4173C14.46 17.4173 14.6613 17.3339 14.8098 17.1854C14.9583 17.037 15.0417 16.8356 15.0417 16.6257V14.5752L15.2712 14.8127C15.3448 14.8869 15.4324 14.9458 15.5289 14.986C15.6253 15.0262 15.7288 15.0469 15.8333 15.0469C15.9378 15.0469 16.0413 15.0262 16.1378 14.986C16.2343 14.9458 16.3218 14.8869 16.3954 14.8127C16.4696 14.7391 16.5285 14.6516 16.5687 14.5551C16.6089 14.4586 16.6296 14.3552 16.6296 14.2507C16.6296 14.1461 16.6089 14.0427 16.5687 13.9462C16.5285 13.8497 16.4696 13.7622 16.3954 13.6886Z" fill="#CE995A"/>
</svg>
