<svg width="33" height="37" viewBox="0 0 33 37" fill="none" xmlns="http://www.w3.org/2000/svg">
<path fill-rule="evenodd" clip-rule="evenodd" d="M0.5 17.5C0.5 19.3566 1.2375 21.137 2.55025 22.4498C3.86301 23.7626 5.64349 24.5 7.5 24.5H14.5V29.672L11.914 27.086C11.5368 26.7217 11.0316 26.5201 10.5072 26.5247C9.98281 26.5293 9.48118 26.7396 9.11036 27.1104C8.73955 27.4812 8.52921 27.9829 8.52465 28.5072C8.5201 29.0316 8.72169 29.5368 9.086 29.914L15.086 35.914C15.4611 36.289 15.9697 36.4996 16.5 36.4996C17.0303 36.4996 17.5389 36.289 17.914 35.914L23.914 29.914C24.2783 29.5368 24.4799 29.0316 24.4753 28.5072C24.4708 27.9829 24.2605 27.4812 23.8896 27.1104C23.5188 26.7396 23.0172 26.5293 22.4928 26.5247C21.9684 26.5201 21.4632 26.7217 21.086 27.086L18.5 29.672V24.5H23.5C24.7335 24.4993 25.9536 24.2451 27.0847 23.7531C28.2158 23.261 29.2337 22.5418 30.0752 21.6399C30.9167 20.7381 31.5638 19.6728 31.9764 18.5104C32.3889 17.348 32.5582 16.1132 32.4735 14.8826C32.3889 13.6521 32.0523 12.452 31.4845 11.357C30.9166 10.262 30.1298 9.29541 29.1728 8.51722C28.2158 7.73903 27.109 7.16587 25.9212 6.83332C24.7334 6.50076 23.49 6.41592 22.268 6.58405C22.0318 5.54122 21.5891 4.55628 20.9659 3.6874C20.3427 2.81851 19.5518 2.08329 18.6398 1.52515C17.7278 0.96701 16.7132 0.597259 15.6559 0.43773C14.5986 0.278201 13.5201 0.33213 12.484 0.596331C11.4479 0.860532 10.4753 1.32965 9.62349 1.97599C8.7717 2.62232 8.05805 3.43277 7.52468 4.35948C6.9913 5.2862 6.64902 6.31039 6.51802 7.37158C6.38703 8.43277 6.46999 9.50945 6.762 10.538C5.04272 10.7203 3.45172 11.5324 2.29553 12.8179C1.13933 14.1033 0.49975 15.7711 0.5 17.5ZM18.5 24.5H14.5V14.5C14.5 13.9696 14.7107 13.4609 15.0858 13.0858C15.4609 12.7108 15.9696 12.5 16.5 12.5C17.0304 12.5 17.5391 12.7108 17.9142 13.0858C18.2893 13.4609 18.5 13.9696 18.5 14.5V24.5Z" fill="#9CA3AF"/>
</svg>
